HIERARCHY
ROOT Hips
{
 OFFSET 0.000000 0.000000 0.000000
 CHANNELS 6 Xposition Yposition Zposition Yrotation Xrotation Zrotation
 JOINT Chest
 {
  OFFSET 0.000000 10.383400 0.001500
  CHANNELS 3 Yrotation Xrotation Zrotation
  JOINT Chest2
  {
   OFFSET 0.000000 10.418200 -0.003100
   CHANNELS 3 Yrotation Xrotation Zrotation
   JOINT Chest3
   {
    OFFSET 0.000000 10.375100 0.000000
    CHANNELS 3 Yrotation Xrotation Zrotation
    JOINT Chest4
    {
     OFFSET 0.000000 10.364600 0.000000
     CHANNELS 3 Yrotation Xrotation Zrotation
     JOINT Neck
     {
      OFFSET 0.000000 15.642200 0.000000
      CHANNELS 3 Yrotation Xrotation Zrotation
      JOINT Head
      {
       OFFSET 0.000000 9.697300 -0.006500
       CHANNELS 3 Yrotation Xrotation Zrotation
       End Site
       {
        OFFSET 0.000000 18.492200 -0.003400
       }
      }
     }
     JOINT RightCollar
     {
      OFFSET -3.166800 10.349300 0.000000
      CHANNELS 3 Yrotation Xrotation Zrotation
      JOINT RightShoulder
      {
       OFFSET -14.729700 0.000000 0.000000
       CHANNELS 3 Yrotation Xrotation Zrotation
       JOINT RightElbow
       {
        OFFSET 0.000000 -32.224300 0.000000
        CHANNELS 3 Yrotation Xrotation Zrotation
        JOINT RightWrist
        {
         OFFSET 0.000000 -26.084100 0.000000
         CHANNELS 3 Yrotation Xrotation Zrotation
         End Site
         {
          OFFSET 0.000000 -19.319400 0.000000
         }
        }
       }
      }
     }
     JOINT LeftCollar
     {
      OFFSET 3.166800 10.349300 0.000000
      CHANNELS 3 Yrotation Xrotation Zrotation
      JOINT LeftShoulder
      {
       OFFSET 14.729700 0.000000 0.000000
       CHANNELS 3 Yrotation Xrotation Zrotation
       JOINT LeftElbow
       {
        OFFSET 0.000000 -32.224300 0.000000
        CHANNELS 3 Yrotation Xrotation Zrotation
        JOINT LeftWrist
        {
         OFFSET 0.000000 -26.084100 0.000000
         CHANNELS 3 Yrotation Xrotation Zrotation
         End Site
         {
          OFFSET 0.000000 -19.319400 0.000000
         }
        }
       }
      }
     }
    }
   }
  }
 }
 JOINT RightHip
 {
  OFFSET -8.428900 -0.007500 -0.000800
  CHANNELS 3 Yrotation Xrotation Zrotation
  JOINT RightKnee
  {
   OFFSET 0.000000 -43.834600 0.000700
   CHANNELS 3 Yrotation Xrotation Zrotation
   JOINT RightAnkle
   {
    OFFSET 0.000000 -42.757000 0.001200
    CHANNELS 3 Yrotation Xrotation Zrotation
    JOINT RightToe
    {
     OFFSET 0.000000 -6.946900 15.649300
     CHANNELS 3 Yrotation Xrotation Zrotation
     End Site
     {
      OFFSET 0.000000 -1.580800 6.825800
     }
    }
   }
  }
 }
 JOINT LeftHip
 {
  OFFSET 8.428900 -0.007500 -0.000800
  CHANNELS 3 Yrotation Xrotation Zrotation
  JOINT LeftKnee
  {
   OFFSET 0.000000 -43.834600 0.000700
   CHANNELS 3 Yrotation Xrotation Zrotation
   JOINT LeftAnkle
   {
    OFFSET 0.000000 -42.757000 0.001200
    CHANNELS 3 Yrotation Xrotation Zrotation
    JOINT LeftToe
    {
     OFFSET 0.000000 -6.946900 15.649300
     CHANNELS 3 Yrotation Xrotation Zrotation
     End Site
     {
      OFFSET 0.000000 -1.580800 6.825800
     }
    }
   }
  }
 }
}
MOTION
Frames: 16
Frame Time: 0.008333
0.000000 93.354300 0.000000 0.000000 -5.767877 0.000000 0.000000 11.653817 0.000000 0.000000 -5.885947 0.000000 0.000000 -0.000000 0.000000 0.000000 -0.000000 0.000000 0.000000 12.528835 0.000000 0.000000 0.711642 0.000000 0.000000 -0.000000 0.000000 0.000000 0.000000 -90.000000 0.000000 -2.309062 0.000000 0.000000 2.309062 0.000000 0.000000 -0.000000 0.000000 0.000000 -0.000000 90.000000 0.000000 -2.309062 0.000000 0.000000 2.309062 0.000000 0.000000 8.520406 0.000000 0.000000 1.905762 0.000000 -0.000000 -4.658285 0.000000 0.000000 -0.000000 0.000000 0.000000 8.520406 0.000000 0.000000 1.905762 0.000000 -0.000000 -4.658285 0.000000 0.000000 -0.000000 0.000000
-1.340963 151.154697 -2.814623 174.680499 -14.588368 -3.127310 -0.288924 16.540131 2.096162 -0.052989 1.700898 0.212288 -0.086875 2.836975 0.355637 -0.283195 14.616010 1.837793 -1.451733 11.903093 -1.735401 -1.114386 -13.123184 -1.499040 4.761552 -2.246034 -0.635497 18.429922 -19.417086 -12.830226 48.261289 -44.968579 -29.793949 17.556495 6.117371 -28.952287 -6.036241 -2.054790 -0.360078 -1.571794 -19.957802 6.210222 -12.932187 -56.468576 -3.539992 -10.751153 -5.314859 23.330051 2.542481 -53.419409 8.728463 -96.483446 84.417442 -93.409561 -0.523596 -20.697121 0.426097 -0.000636 0.003796 0.001420 4.016687 -53.375642 -6.347455 93.764043 80.105042 100.069149 9.162216 -22.175079 -10.295955 0.002787 -0.003179 0.001635
-1.968209 143.212533 -1.898041 174.683753 -14.580084 -3.124083 -0.284738 16.552378 2.089101 -0.056603 1.691605 0.215020 -0.082990 2.853642 0.353692 -0.283263 14.605651 1.840057 -1.454572 11.911622 -1.733944 -1.121315 -13.131048 -1.490053 4.761301 -2.253596 -0.670428 18.412350 -19.423620 -12.794124 48.303544 -44.956106 -29.817555 17.558073 6.078500 -29.041807 -6.042628 -2.068765 -0.350435 -1.558160 -19.952995 6.204723 -12.893143 -56.455604 -3.576704 -10.698254 -5.446829 23.391911 2.557427 -53.427983 8.710196 -96.487877 84.418446 -93.408605 -0.521013 -20.690252 0.425535 -0.002264 0.000132 -0.001005 4.024490 -53.386296 -6.357977 93.764657 80.102113 100.071600 9.157621 -22.171796 -10.296171 0.002055 -0.001912 0.000912
-2.484561 136.672030 -1.144037 174.685101 -14.575599 -3.122724 -0.277233 16.570065 2.085908 -0.052652 1.718725 0.210182 -0.089090 2.832820 0.358475 -0.274299 14.624211 1.838881 -1.457551 11.891002 -1.723984 -1.128576 -13.141444 -1.479816 4.751317 -2.300277 -0.670136 18.428595 -19.396096 -12.799578 48.367839 -44.936560 -29.830716 17.517197 6.050951 -29.190026 -6.060335 -2.106035 -0.321280 -1.534404 -19.949561 6.184888 -12.862665 -56.446026 -3.603360 -10.639056 -5.575041 23.461512 2.569345 -53.432717 8.698451 -96.485100 84.419621 -93.396911 -0.522867 -20.684087 0.421433 -0.000375 -0.003644 -0.000166 4.032690 -53.392930 -6.366603 93.767148 80.103007 100.080306 9.153925 -22.166945 -10.299548 0.001639 -0.001682 0.000728
-2.856897 131.947918 -0.598337 174.684709 -14.563345 -3.126409 -0.272702 16.580404 2.086196 -0.050713 1.720378 0.210162 -0.087966 2.837034 0.358786 -0.266539 14.643648 1.838050 -1.465423 11.870350 -1.712351 -1.134400 -13.153089 -1.468911 4.747425 -2.339354 -0.687994 18.427512 -19.397416 -12.785450 48.399058 -44.919812 -29.832437 17.500104 6.008455 -29.346255 -6.074653 -2.147125 -0.293148 -1.524285 -19.947195 6.169706 -12.829447 -56.432339 -3.624650 -10.575646 -5.704810 23.541825 2.572661 -53.445419 8.699410 -96.448261 84.418229 -93.355045 -0.524391 -20.677540 0.420557 0.000402 -0.006389 0.000178 4.035193 -53.407088 -6.367862 93.758383 80.111129 100.085693 9.155006 -22.159973 -10.311850 0.005594 -0.001060 0.002483
-3.092338 128.964124 -0.253753 174.681425 -14.552768 -3.127935 -0.264710 16.590653 2.084534 -0.048363 1.722733 0.211579 -0.086612 2.841430 0.358917 -0.259043 14.653902 1.838175 -1.468001 11.882544 -1.698184 -1.146815 -13.191476 -1.457916 4.737812 -2.370779 -0.708539 18.429031 -19.397842 -12.770284 48.426778 -44.896565 -29.831949 17.463421 5.946971 -29.550577 -6.088912 -2.184259 -0.269649 -1.518791 -19.939559 6.157818 -12.808924 -56.420441 -3.634280 -10.511662 -5.843371 23.638396 2.575455 -53.456103 8.701773 -96.439698 84.425958 -93.346445 -0.531276 -20.673190 0.419385 -0.000514 -0.007256 -0.000228 4.040419 -53.418369 -6.366628 93.775948 80.111909 100.097618 9.152706 -22.162657 -10.306754 0.001003 0.000978 0.000445
-3.222443 127.323024 -0.065085 174.680575 -14.548037 -3.127078 -0.253367 16.621275 2.080478 -0.051815 1.709379 0.214655 -0.088126 2.832724 0.360680 -0.247862 14.679277 1.835664 -1.474471 11.869359 -1.685911 -1.158170 -13.196933 -1.433566 4.724166 -2.397353 -0.727506 18.433406 -19.402547 -12.761437 48.448972 -44.876942 -29.827557 17.413725 5.885837 -29.784338 -6.106822 -2.220064 -0.241068 -1.511456 -19.930522 6.136354 -12.820379 -56.413133 -3.612237 -10.449598 -5.996233 23.756410 2.583619 -53.461520 8.699802 -96.444300 84.425568 -93.352288 -0.535568 -20.671234 0.423654 -0.001611 -0.008313 -0.000715 4.044599 -53.422389 -6.370024 93.770378 80.111669 100.090517 9.151508 -22.161939 -10.305556 0.000419 0.001368 0.000186
-3.284308 126.541483 0.024325 174.676551 -14.545081 -3.128267 -0.242625 16.641562 2.079593 -0.052179 1.708428 0.215603 -0.084599 2.844817 0.359946 -0.240233 14.685734 1.836675 -1.482038 11.848588 -1.673799 -1.162249 -13.214719 -1.431457 4.724923 -2.417206 -0.764105 18.419333 -19.417995 -12.739995 48.461273 -44.871241 -29.826499 17.382291 5.839821 -29.997632 -6.124362 -2.257982 -0.214956 -1.541566 -19.924847 6.126637 -12.806423 -56.407333 -3.584556 -10.400983 -6.158244 23.896835 2.595436 -53.464095 8.700514 -96.415559 84.419042 -93.319132 -0.536749 -20.669576 0.427402 0.000276 -0.007682 0.000123 4.044936 -53.424738 -6.366843 93.765832 80.111034 100.084641 9.149947 -22.160853 -10.305568 -0.000035 0.001328 -0.000016
-3.309749 126.221739 0.060198 174.669493 -14.544570 -3.128862 -0.232716 16.650503 2.080299 -0.050111 1.716219 0.214125 -0.081122 2.863675 0.357909 -0.232881 14.691937 1.837845 -1.489944 11.812895 -1.662563 -1.170298 -13.206687 -1.414683 4.724191 -2.449617 -0.782544 18.408100 -19.425967 -12.726510 48.463766 -44.872930 -29.828311 17.381409 5.802930 -30.164020 -6.141939 -2.287005 -0.178180 -1.545766 -19.935196 6.108190 -12.805289 -56.400654 -3.567511 -10.360428 -6.337573 24.049754 2.597041 -53.463707 8.709368 -96.428660 84.420550 -93.334963 -0.540329 -20.671699 0.431360 0.000435 -0.007218 0.000193 4.046320 -53.424767 -6.361047 93.776940 80.114060 100.094317 9.148857 -22.158422 -10.310241 -0.000513 0.001748 -0.000228
-3.317506 126.110289 0.073056 174.666691 -14.539168 -3.137946 -0.224095 16.655098 2.088268 -0.047157 1.730051 0.210936 -0.083372 2.854482 0.361521 -0.229106 14.698570 1.837948 -1.493210 11.822524 -1.654696 -1.182371 -13.219165 -1.398658 4.729861 -2.463689 -0.797389 18.399242 -19.429126 -12.718873 48.486448 -44.859833 -29.824692 17.365574 5.766139 -30.328029 -6.147862 -2.306164 -0.168250 -1.550337 -19.935830 6.107557 -12.883606 -56.391283 -3.493609 -10.285213 -6.530125 24.197163 2.582159 -53.467480 8.728906 -96.443767 84.422390 -93.345267 -0.539960 -20.674913 0.419323 0.002640 -0.007308 0.001172 4.034259 -53.429908 -6.343687 93.767633 80.115280 100.083960 9.152935 -22.156965 -10.312042 -0.000502 0.002508 -0.000223
-3.319975 126.077643 0.076273 174.661573 -14.536583 -3.140839 -0.205129 16.693033 2.082807 -0.049066 1.718827 0.215894 -0.089037 2.839242 0.367516 -0.225664 14.705113 1.837890 -1.495083 11.833726 -1.646934 -1.190270 -13.229675 -1.383695 4.729858 -2.483225 -0.800535 18.418866 -19.413107 -12.733496 48.485554 -44.854927 -29.820968 17.359409 5.730558 -30.472032 -6.163187 -2.325420 -0.145301 -1.556373 -19.931085 6.098994 -12.891867 -56.392723 -3.462781 -10.231721 -6.711239 24.315150 2.579717 -53.469562 8.737433 -96.464872 84.423616 -93.365252 -0.539903 -20.677217 0.416155 0.001922 -0.007482 0.000853 4.033931 -53.432583 -6.336123 93.786060 80.117719 100.102280 9.156334 -22.154651 -10.314437 0.000518 0.002843 0.000230
-3.320827 126.069523 0.076930 174.658798 -14.531862 -3.142082 -0.192610 16.708691 2.080315 -0.052704 1.709950 0.219417 -0.082670 2.857097 0.363652 -0.212414 14.717885 1.837612 -1.499215 11.859744 -1.629450 -1.212044 -13.271565 -1.362160 4.722494 -2.519387 -0.812115 18.432359 -19.397031 -12.733742 48.482996 -44.852346 -29.826100 17.350760 5.705850 -30.579703 -6.188890 -2.362735 -0.112140 -1.579465 -19.920655 6.102469 -12.862837 -56.403458 -3.459199 -10.173484 -6.877288 24.401230 2.576263 -53.473818 8.746469 -96.491373 84.423571 -93.393741 -0.542936 -20.681930 0.419247 0.003049 -0.008066 0.001353 4.034609 -53.437413 -6.329951 93.797501 80.125066 100.112455 9.153559 -22.153818 -10.314105 -0.000790 0.002307 -0.000351
-3.321291 126.067690 0.076751 174.659316 -14.527149 -3.142602 -0.185483 16.719563 2.077620 -0.054736 1.705943 0.220997 -0.076066 2.873676 0.359088 -0.200944 14.729424 1.834169 -1.508762 11.854971 -1.608299 -1.221065 -13.279860 -1.342736 4.737092 -2.546151 -0.843803 18.409255 -19.398335 -12.703507 48.496932 -44.839898 -29.840472 17.324907 5.693049 -30.632447 -6.211996 -2.397586 -0.072194 -1.574794 -19.918668 6.088116 -12.857914 -56.407313 -3.456389 -10.106236 -7.030292 24.458969 2.584904 -53.476647 8.736115 -96.510053 84.428389 -93.405136 -0.541154 -20.687620 0.419660 0.001101 -0.007167 0.000489 4.032794 -53.442368 -6.325725 93.803079 80.126165 100.118522 9.141940 -22.152624 -10.312087 -0.001718 0.001184 -0.000763
-3.321566 126.067105 0.076525 174.661037 -14.521449 -3.142912 -0.175909 16.735138 2.078205 -0.046136 1.727957 0.215544 -0.082508 2.860200 0.360252 -0.191588 14.741843 1.832856 -1.518088 11.849329 -1.588226 -1.242651 -13.266026 -1.308684 4.740592 -2.582432 -0.858897 18.407326 -19.389869 -12.690406 48.517743 -44.828862 -29.861671 17.330160 5.672292 -30.735191 -6.233497 -2.433315 -0.038260 -1.569559 -19.917863 6.075864 -12.849867 -56.404093 -3.453782 -10.037494 -7.183667 24.503852 2.592695 -53.482439 8.728527 -96.527965 84.430175 -93.417897 -0.541595 -20.688967 0.420127 0.000577 -0.007250 0.000256 4.029554 -53.448802 -6.324789 93.797291 80.129027 100.111940 9.159658 -22.141940 -10.326495 0.000440 0.001110 0.000195
-3.321773 126.066827 0.075890 174.661321 -14.517757 -3.141952 -0.163529 16.759954 2.080842 -0.045352 1.732349 0.215535 -0.072002 2.890268 0.359139 -0.179224 14.767697 1.830166 -1.541259 11.798124 -1.563572 -1.247669 -13.297023 -1.310041 4.721027 -2.669945 -0.865309 18.417351 -19.374379 -12.687236 48.595643 -44.773453 -29.908224 17.315642 5.605395 -30.902321 -6.277223 -2.512951 0.001918 -1.543337 -19.912281 6.058633 -12.846733 -56.408079 -3.459291 -9.972273 -7.332478 24.561401 2.602163 -53.486962 8.720096 -96.550048 84.431654 -93.436190 -0.541498 -20.688627 0.419330 -0.000371 -0.007685 -0.000165 4.027411 -53.451715 -6.323726 93.792112 80.135223 100.108913 9.165343 -22.135825 -10.333697 0.001706 0.000912 0.000757
-3.322148 126.066531 0.075449 174.661316 -14.512794 -3.139363 -0.157556 16.779868 2.080759 -0.044986 1.735995 0.215683 -0.073861 2.878889 0.359346 -0.173109 14.798279 1.828944 -1.548503 11.788681 -1.548309 -1.255807 -13.304036 -1.297448 4.721664 -2.714673 -0.878740 18.425797 -19.359304 -12.683776 48.632767 -44.750481 -29.933129 17.323209 5.551552 -31.047951 -6.294171 -2.542129 0.042940 -1.511828 -19.918089 6.025954 -12.848948 -56.409888 -3.468123 -9.907345 -7.478964 24.635827 2.611747 -53.492176 8.710032 -96.564572 84.432278 -93.448198 -0.540865 -20.689465 0.419971 -0.001126 -0.008013 -0.000500 4.028099 -53.455487 -6.323564 93.781049 80.142854 100.096568 9.166882 -22.131523 -10.333669 0.001681 0.000685 0.000746
